<svg width="16" height="16" viewBox="0 0 16 16" fill="none" xmlns="http://www.w3.org/2000/svg">
<path d="M10.6667 1.33326C11.4453 1.3332 12.207 1.5604 12.8584 1.98699C13.5098 2.41359 14.0225 3.02102 14.3337 3.73479C14.6448 4.44856 14.7409 5.23762 14.6101 6.0052C14.4793 6.77278 14.1273 7.48549 13.5973 8.05592L13.4707 8.18526L7.65265 14.0033L7.61732 14.0366L7.57999 14.0666C7.10604 14.4752 6.4952 14.6895 5.86987 14.6667C5.24454 14.6439 4.65093 14.3857 4.20799 13.9437C3.76506 13.5016 3.50554 12.9086 3.48143 12.2833C3.45732 11.658 3.67041 11.0467 4.07799 10.5719L4.17732 10.4626L4.18732 10.4553L9.04732 5.58592C9.17224 5.46074 9.34177 5.39031 9.51861 5.39012C9.69546 5.38993 9.86514 5.46 9.99032 5.58492C10.1155 5.70984 10.1859 5.87937 10.1861 6.05622C10.1863 6.23306 10.1162 6.40274 9.99132 6.52792L5.13132 11.3973L5.12332 11.4026C4.92717 11.6121 4.81663 11.8874 4.81352 12.1744C4.81042 12.4614 4.91496 12.7391 5.10654 12.9527C5.29811 13.1664 5.56281 13.3005 5.8484 13.3286C6.134 13.3567 6.41976 13.2768 6.64932 13.1046L6.73065 13.0379L6.73132 13.0386L12.5327 7.23859L12.6387 7.12859C13.1054 6.61556 13.3539 5.94087 13.3314 5.24766C13.309 4.55445 13.0173 3.89726 12.5183 3.41554C12.0193 2.93381 11.3523 2.66545 10.6587 2.66739C9.96514 2.66933 9.29961 2.94141 8.80332 3.42592L8.69999 3.53259L8.68799 3.54059L2.47065 9.76059C2.40871 9.82249 2.33519 9.87158 2.25428 9.90506C2.17337 9.93854 2.08665 9.95576 1.99909 9.95572C1.91152 9.95569 1.82482 9.93842 1.74393 9.90488C1.66304 9.87134 1.58955 9.8222 1.52765 9.76026C1.46576 9.69832 1.41667 9.62479 1.38319 9.54388C1.34971 9.46297 1.33249 9.37625 1.33252 9.28869C1.33258 9.11184 1.40289 8.94226 1.52799 8.81726L7.73332 2.60859L7.76399 2.57992C8.13747 2.18548 8.58757 1.87145 9.08669 1.65708C9.58581 1.44272 10.1234 1.33252 10.6667 1.33326Z" fill="#374353"/>
</svg>
