<svg width="14" height="12" viewBox="0 0 14 12" fill="none" xmlns="http://www.w3.org/2000/svg">
<path fill-rule="evenodd" clip-rule="evenodd" d="M12.6869 0.313073C12.8821 0.508335 12.8821 0.824917 12.6869 1.02018L10.8032 2.90388C10.7839 2.92695 10.7629 2.94788 10.7404 2.96661L8.83128 4.87578C8.81367 4.90117 8.79345 4.92529 8.77061 4.94775C8.74982 4.9682 8.72769 4.98647 8.70451 5.00254L6.00103 7.70602C5.98531 7.72843 5.96754 7.74984 5.9477 7.77C5.92591 7.79214 5.90257 7.81182 5.87801 7.82904L3.95717 9.74989C3.94287 9.76616 3.92769 9.7813 3.91176 9.7953L2.02021 11.6868C1.82495 11.8821 1.50837 11.8821 1.3131 11.6868C1.11784 11.4916 1.11784 11.175 1.3131 10.9797L2.82122 9.47163C1.75881 8.6237 0.925871 7.64106 0.432739 6.99802C0.211467 6.71252 0.0913696 6.36155 0.0913696 6.00031C0.0913696 5.63912 0.211437 5.28819 0.432658 5.00271C0.943991 4.33534 1.81915 3.30573 2.93531 2.43856C4.04651 1.57523 5.44771 0.833313 6.99999 0.833313C8.24063 0.833313 9.38337 1.30712 10.357 1.93583L11.9798 0.313073C12.175 0.11781 12.4916 0.11781 12.6869 0.313073ZM6.99999 1.83331C7.91834 1.83331 8.8098 2.16195 9.63161 2.66124L8.37987 3.91297C8.24929 3.826 8.11049 3.75131 7.96521 3.69008C7.6611 3.56189 7.33463 3.49518 7.00461 3.4938C6.6746 3.49241 6.34758 3.55639 6.04241 3.68202C5.73724 3.80766 5.45997 3.99247 5.22658 4.2258C4.9932 4.45913 4.80832 4.73636 4.68261 5.0415C4.5569 5.34664 4.49286 5.67364 4.49416 6.00366C4.49546 6.33367 4.5621 6.66016 4.69021 6.9643C4.75149 7.10977 4.82626 7.24876 4.91334 7.37951L3.5332 8.75964C2.51939 7.96903 1.70905 7.01915 1.22544 6.38842L1.22545 6.38841L1.22354 6.38594C1.13787 6.27565 1.09137 6.13997 1.09137 6.00031C1.09137 5.86066 1.13787 5.72498 1.22354 5.61468L1.22355 5.61469L1.22558 5.61204C1.70971 4.98004 2.52583 4.02303 3.54883 3.22823C4.57747 2.42906 5.76426 1.83331 6.99999 1.83331ZM7.57678 4.61156C7.60107 4.62179 7.62505 4.63266 7.64871 4.64413L5.6445 6.64834C5.63297 6.62458 5.62206 6.60049 5.61178 6.57609C5.53491 6.39361 5.49494 6.19771 5.49415 5.99971C5.49337 5.8017 5.5318 5.60549 5.60722 5.42241C5.68265 5.23933 5.79357 5.07299 5.93361 4.93299C6.07364 4.79299 6.24 4.6821 6.4231 4.60672C6.6062 4.53134 6.80242 4.49296 7.00042 4.49379C7.19843 4.49462 7.39432 4.53464 7.57678 4.61156ZM12.4067 3.65306C12.2151 3.4542 11.8986 3.4483 11.6997 3.63989C11.5009 3.83148 11.495 4.14801 11.6866 4.34688C12.0725 4.74742 12.4355 5.1694 12.7738 5.61082L12.7738 5.61083L12.7759 5.6135C12.8617 5.72386 12.9083 5.85964 12.9084 5.99943C12.9084 6.13921 12.8619 6.27504 12.7763 6.38549L12.7763 6.38548L12.7744 6.38791C12.2903 7.01991 11.4741 7.97692 10.4511 8.77172C9.42282 9.57065 8.23643 10.1663 7.00111 10.1666C6.59748 10.1647 6.19617 10.1052 5.8093 9.99008C5.54464 9.9113 5.26622 10.062 5.18744 10.3267C5.10865 10.5913 5.25934 10.8697 5.52401 10.9485C6.00238 11.0909 6.49861 11.1644 6.99771 11.1666H6.99999C8.55226 11.1666 9.95347 10.4247 11.0647 9.56139C12.1809 8.69418 13.0561 7.66453 13.5674 6.99716C13.7886 6.71145 13.9085 6.36031 13.9084 5.99895C13.9082 5.63767 13.7879 5.28671 13.5666 5.00125C13.2056 4.53042 12.8184 4.08031 12.4067 3.65306Z" fill="#374353"/>
</svg>
