<svg width="16" height="16" viewBox="0 0 16 16" fill="none" xmlns="http://www.w3.org/2000/svg">
<path d="M10.9828 3.60534L12.3948 5.01667L10.9828 3.60534ZM11.8908 2.36201L8.07283 6.18001C7.87555 6.37701 7.74101 6.628 7.68616 6.90134L7.3335 8.66667L9.09883 8.31334C9.37216 8.25867 9.62283 8.12467 9.82016 7.92734L13.6382 4.10934C13.7529 3.99461 13.8439 3.8584 13.906 3.7085C13.9681 3.55859 14 3.39793 14 3.23567C14 3.07342 13.9681 2.91275 13.906 2.76285C13.8439 2.61294 13.7529 2.47674 13.6382 2.36201C13.5234 2.24728 13.3872 2.15627 13.2373 2.09417C13.0874 2.03208 12.9268 2.00012 12.7645 2.00012C12.6022 2.00012 12.4416 2.03208 12.2917 2.09417C12.1418 2.15627 12.0056 2.24728 11.8908 2.36201V2.36201Z" stroke="#558FE6" stroke-linecap="round" stroke-linejoin="round"/>
<path d="M12.6667 10V12C12.6667 12.3537 12.5263 12.6928 12.2762 12.9428C12.0262 13.1929 11.687 13.3334 11.3334 13.3334H4.00008C3.64646 13.3334 3.30732 13.1929 3.05727 12.9428C2.80722 12.6928 2.66675 12.3537 2.66675 12V4.66671C2.66675 4.31309 2.80722 3.97395 3.05727 3.7239C3.30732 3.47385 3.64646 3.33337 4.00008 3.33337H6.00008" stroke="#558FE6" stroke-linecap="round" stroke-linejoin="round"/>
</svg>
