<svg width="16" height="16" viewBox="0 0 16 16" fill="none" xmlns="http://www.w3.org/2000/svg">
<path fill-rule="evenodd" clip-rule="evenodd" d="M1.99998 8.66663H2.66665V9.99996V13.3333C2.66665 14.0686 3.26465 14.6666 3.99998 14.6666H12C12.7353 14.6666 13.3333 14.0686 13.3333 13.3333V9.99996V8.66663H14C14.2693 8.66663 14.5133 8.50396 14.616 8.2553C14.7193 8.00596 14.662 7.7193 14.4713 7.52863L8.47132 1.52863C8.21065 1.26796 7.78932 1.26796 7.52865 1.52863L1.52865 7.52863C1.33798 7.7193 1.28065 8.00596 1.38398 8.2553C1.48732 8.50396 1.73065 8.66663 1.99998 8.66663ZM7.99998 2.94263L12 6.94263V9.99996L12.0007 13.3333H3.99998V9.99996V7.99996V6.94329L7.99998 2.94263Z" fill="currentColor"/>
<path fill-rule="evenodd" clip-rule="evenodd" d="M7.99998 11.3333C9.47065 11.3333 10.6666 10.1373 10.6666 8.66667C10.6666 7.196 9.47065 6 7.99998 6C6.52931 6 5.33331 7.196 5.33331 8.66667C5.33331 10.1373 6.52931 11.3333 7.99998 11.3333ZM7.99996 7.33334C8.7353 7.33334 9.3333 7.93134 9.3333 8.66667C9.3333 9.402 8.7353 10 7.99996 10C7.26463 10 6.66663 9.402 6.66663 8.66667C6.66663 7.93134 7.26463 7.33334 7.99996 7.33334Z" fill="currentColor"/>
</svg>
