<svg width="14" height="12" viewBox="0 0 14 12" fill="none" xmlns="http://www.w3.org/2000/svg">
<path fill-rule="evenodd" clip-rule="evenodd" d="M1.22559 5.61204C1.70972 4.98004 2.52584 4.02303 3.54884 3.22823C4.57748 2.42906 5.76427 1.83331 7 1.83331C8.23572 1.83331 9.42252 2.42906 10.4512 3.22823C11.474 4.02294 12.2901 4.97981 12.7742 5.61181C12.9532 5.84601 12.9528 6.1549 12.7744 6.38799C12.2902 7.01999 11.4741 7.97696 10.4512 8.77173C9.42252 9.5709 8.23572 10.1666 7 10.1666C5.76427 10.1666 4.57748 9.5709 3.54884 8.77173C2.52584 7.97693 1.70972 7.01992 1.22559 6.38792L1.2256 6.38792L1.22352 6.38524C1.13793 6.27506 1.09146 6.1395 1.09146 5.99998C1.09146 5.86045 1.13793 5.7249 1.22352 5.61472L1.22353 5.61472L1.22559 5.61204ZM7 0.833313C5.44772 0.833313 4.04652 1.57523 2.93532 2.43856C1.81918 3.30572 0.944023 4.33531 0.432687 5.00268C0.211508 5.28806 0.0914612 5.63889 0.0914612 5.99998C0.0914612 6.36106 0.211503 6.71188 0.432671 6.99725C0.944004 7.66462 1.81916 8.69423 2.93532 9.5614C4.04652 10.4247 5.44772 11.1666 7 11.1666C8.55227 11.1666 9.95348 10.4247 11.0647 9.5614C12.1815 8.6937 13.0571 7.66337 13.5683 6.99604L13.5683 6.99597C14.0218 6.40377 14.0215 5.59675 13.5685 5.0043L13.5683 5.00392C13.0571 4.33659 12.1815 3.30626 11.0647 2.43856C9.95348 1.57523 8.55227 0.833313 7 0.833313ZM5.5 6C5.5 5.17157 6.17157 4.5 7 4.5C7.82843 4.5 8.5 5.17157 8.5 6C8.5 6.82843 7.82843 7.5 7 7.5C6.17157 7.5 5.5 6.82843 5.5 6ZM7 3.5C5.61929 3.5 4.5 4.61929 4.5 6C4.5 7.38071 5.61929 8.5 7 8.5C8.38071 8.5 9.5 7.38071 9.5 6C9.5 4.61929 8.38071 3.5 7 3.5Z" fill="#374353"/>
</svg>
