<svg width="10" height="10" viewBox="0 0 10 10" fill="none" xmlns="http://www.w3.org/2000/svg">
<path d="M5 10.0001C7.48119 10.0001 9.5 8.09463 9.5 5.75279C9.5 3.97425 8.3345 2.45002 6.6875 1.81824V2.99845C7.69438 3.55059 8.375 4.57683 8.375 5.75279C8.375 7.50957 6.86131 8.93824 5 8.93824C3.13869 8.93824 1.625 7.50957 1.625 5.75279C1.625 4.57683 2.30562 3.55006 3.3125 2.99845V1.81824C1.6655 2.45002 0.5 3.97425 0.5 5.75279C0.5 8.09463 2.51881 10.0001 5 10.0001Z" fill="#F46A6A"/>
<path d="M4.5 0H5.5V5.45455H4.5V0Z" fill="#F46A6A"/>
</svg>
