<svg width="10" height="11" viewBox="0 0 10 11" fill="none" xmlns="http://www.w3.org/2000/svg">
<path fill-rule="evenodd" clip-rule="evenodd" d="M5 0C3.46833 0 2.22222 1.29858 2.22222 2.89474C2.22222 4.49089 3.46833 5.78947 5 5.78947C6.53167 5.78947 7.77778 4.49089 7.77778 2.89474C7.77778 1.29858 6.53167 0 5 0ZM5 4.63158C4.08111 4.63158 3.33333 3.85232 3.33333 2.89474C3.33333 1.93716 4.08111 1.15789 5 1.15789C5.91889 1.15789 6.66667 1.93716 6.66667 2.89474C6.66667 3.85232 5.91889 4.63158 5 4.63158ZM10 10.4211V11H8.88889V10.4211C8.88889 8.82489 7.64278 7.52632 6.11111 7.52632H3.88889C2.35722 7.52632 1.11111 8.82489 1.11111 10.4211V11H0V10.4211C0 8.18689 1.74444 6.36842 3.88889 6.36842H6.11111C8.255 6.36842 10 8.18689 10 10.4211Z" fill="#374353"/>
</svg>
